<svg width="10" height="10" viewBox="0 0 10 10" fill="none" xmlns="http://www.w3.org/2000/svg">
<path d="M4.29323 3.32269C4.68375 3.71322 5.31692 3.71322 5.70744 3.32269L7.90921 1.12093C8.17712 0.853012 8.6115 0.853012 8.87941 1.12093C9.14732 1.38884 9.14732 1.82321 8.87941 2.09113L6.67764 4.29289C6.28712 4.68342 6.28712 5.31658 6.67764 5.70711L8.87941 7.90887C9.14732 8.17679 9.14732 8.61116 8.87941 8.87907C8.6115 9.14699 8.17712 9.14699 7.90921 8.87907L5.70744 6.67731C5.31692 6.28678 4.68375 6.28678 4.29323 6.67731L2.09146 8.87907C1.82355 9.14699 1.38918 9.14699 1.12126 8.87907C0.853349 8.61116 0.853349 8.17679 1.12126 7.90887L3.32303 5.70711C3.71355 5.31658 3.71355 4.68342 3.32303 4.29289L1.12126 2.09113C0.853349 1.82321 0.853349 1.38884 1.12126 1.12093C1.38918 0.853012 1.82355 0.853012 2.09146 1.12093L4.29323 3.32269Z" fill="#FF8303"/>
</svg>
